<svg><defs><rect id="svg_id_14a" width="212" height="40" rx="2"/><linearGradient id="svg_id_8a" x1="50.385%" x2="50.385%" y1="-3.016%" y2="151.586%"><stop offset="0%" stop-color="#ED1C24"/><stop offset="12.77%" stop-color="#E41C24"/><stop offset="27.32%" stop-color="#D41C23"/><stop offset="42.75%" stop-color="#BD1A20"/><stop offset="58.79%" stop-color="#9D161A"/><stop offset="75.16%" stop-color="#780E10"/><stop offset="75.46%" stop-color="#780E0F"/></linearGradient><linearGradient id="svg_id_9b" x1="-.124%" x2="99.898%" y1="50.039%" y2="50.039%"><stop offset="0%" stop-color="#69231D"/><stop offset="17.92%" stop-color="#7F2821"/><stop offset="53.26%" stop-color="#AA3027"/><stop offset="81.88%" stop-color="#C6332A"/><stop offset="100%" stop-color="#D1342A"/></linearGradient><linearGradient id="svg_id_10c" x1="19.085%" x2="78.408%" y1="53.268%" y2="3.041%"><stop offset="10%" stop-color="#EFF2F4"/><stop offset="36.38%" stop-color="#D5DDE1"/><stop offset="89.32%" stop-color="#A1B0B9"/><stop offset="100%" stop-color="#96A7B0"/></linearGradient><linearGradient id="svg_id_11d" x1="49.738%" x2="49.738%" y1="113.085%" y2="1.506%"><stop offset="0%" stop-color="#1C2F72"/><stop offset="19.18%" stop-color="#00508B"/><stop offset="39.85%" stop-color="#006DA7"/><stop offset="59.01%" stop-color="#0088C1"/><stop offset="76.03%" stop-color="#009CD5"/><stop offset="90.27%" stop-color="#00A9E5"/><stop offset="100%" stop-color="#00AFEB"/></linearGradient></defs><symbol id="input1" viewBox="0 0 178 65"><g fill="none" fill-rule="evenodd"><g transform="translate(1 24)"><rect width="176" height="40" fill="#FFF" stroke="#0078D2" stroke-linecap="square" stroke-width="2" rx="2"/><rect width="17" height="26" x="11" y="7" fill="#078DF2"/><text font-family="AmericanSans" font-size="18" letter-spacing=".36" transform="translate(12 9)"><tspan x="0" y="18" fill="#FFF">15</tspan> <tspan x="16.092" y="18" fill="#131313"> MAY 2018</tspan></text></g><text fill="#131313" font-family="AmericanSansMedium, AmericanSans Medium" font-size="16" letter-spacing=".36" transform="translate(1 -3)"><tspan x="0" y="15">Label</tspan></text></g></symbol><symbol id="input2" viewBox="0 0 214 63"><g fill="none" fill-rule="evenodd"><g transform="translate(1 22)"><mask id="svg_id_15b" fill="#fff"><use xlink:href="#svg_id_14a"/></mask><use fill="#FFF" stroke="#36495A" stroke-linecap="square" stroke-width="2" xlink:href="#svg_id_14a"/><g fill="#00467F" mask="url(#svg_id_15b)"><rect width="42" height="40" transform="translate(170)"/></g><path fill="#FFF" d="M196.853659,22.5279503 L198.121951,23.6666667 L197,24.7142857 L195.780488,23.5300207 L194.512195,24.7142857 L193.390244,23.6666667 L194.658537,22.5279503 L193.390244,21.3436853 L194.512195,20.2960663 L195.780488,21.4803313 L197,20.2960663 L198.121951,21.3436853 L196.853659,22.5279503 Z M181,15.3768116 L181,13.0993789 C181,12.7349878 181.08943,12.3933763 181.268293,12.0745342 C181.447155,11.755692 181.682925,11.4824028 181.97561,11.2546584 C182.268294,11.026914 182.617884,10.8371298 183.02439,10.6853002 C183.430896,10.5334706 183.878046,10.4575569 184.365854,10.4575569 L184.95122,10.4575569 L184.95122,11.6873706 L184.365854,11.6873706 C184.10569,11.6873706 183.86992,11.7253274 183.658537,11.8012422 C183.447153,11.877157 183.260163,11.9834362 183.097561,12.1200828 C182.934959,12.2567295 182.804879,12.4085568 182.707317,12.5755694 C182.609756,12.7425819 182.560976,12.9171834 182.560976,13.0993789 L182.560976,14.1469979 L199.439024,14.1469979 L199.439024,13.0993789 C199.439024,12.9171834 199.390244,12.7425819 199.292683,12.5755694 C199.195121,12.4085568 199.065041,12.2567295 198.902439,12.1200828 C198.739837,11.9834362 198.552847,11.877157 198.341463,11.8012422 C198.13008,11.7253274 197.89431,11.6873706 197.634146,11.6873706 L196.658537,11.6873706 L196.658537,10.5031056 L197.634146,10.5031056 C198.121954,10.5031056 198.569104,10.5714279 198.97561,10.7080745 C199.382116,10.8447212 199.731706,11.026914 200.02439,11.2546584 C200.317075,11.4824028 200.552845,11.755692 200.731707,12.0745342 C200.91057,12.3933763 201,12.7349878 201,13.0993789 L201,15.3768116 L181,15.3768116 Z M186.414634,9 L187.195122,9 C187.292683,9 187.390243,9.0227741 187.487805,9.06832298 C187.585366,9.11387186 187.674796,9.16701143 187.756098,9.22774327 C187.837399,9.28847511 187.894309,9.36438878 187.926829,9.45548654 C187.95935,9.54658431 187.97561,9.6376807 187.97561,9.72877847 L187.97561,11.9606625 L186.414634,11.9606625 L186.414634,9 Z M193.731707,9 L194.512195,9 C194.642277,9 194.756097,9.0227741 194.853659,9.06832298 C194.95122,9.11387186 195.03252,9.15942006 195.097561,9.20496894 C195.162602,9.25051783 195.219512,9.31884012 195.268293,9.40993789 C195.317073,9.50103565 195.341463,9.59213205 195.341463,9.68322981 L195.341463,11.9606625 L193.731707,11.9606625 L193.731707,9 Z M189.439024,10.4575569 L192.317073,10.4575569 L192.317073,11.9606625 L189.439024,11.9606625 L189.439024,10.4575569 Z M199.439024,17.3809524 L201,17.3809524 L201,31 L181,31 L181,17.3809524 L182.560976,17.3809524 L182.560976,29.4968944 L199.439024,29.4968944 L199.439024,17.3809524 Z" mask="url(#svg_id_15b)"/></g><text fill="#131313" font-family="AmericanSansMedium, AmericanSans Medium" font-size="16" letter-spacing=".37" transform="translate(-1 -4)"><tspan x="1" y="15.5">Label</tspan></text><text fill="#131313" font-family="AmericanSans" font-size="18" letter-spacing=".36" transform="translate(13 31)"><tspan x="0" y="18">15 MAY 2018</tspan></text></g></symbol><symbol id="input3" viewBox="0 0 121 122"><ellipse cx="60.4" cy="61.1" fill="#4DB4FA" rx="60.1" ry="60.6"/><path fill="#FFFFFE" d="M2.9,36.7c-6.9,0-12.5,5.7-12.5,12.7S-4,62,2.9,62h64.9c4.8,0,8.8-4,8.8-8.9s-3.9-8.9-8.8-8.9 c-1.3,0-2.6,0.3-3.8,0.9l-2.6,1.3l-0.2-2.9c-0.5-8.1-7.1-14.4-15-14.4c-1.9,0-3.7,0.4-5.5,1L39,30.7l-0.7-1.8 c-2.6-6.8-9-11.2-16.1-11.2c-9.4,0-17,7.5-17.3,17l-0.1,1.9H2.9V36.7z M67.8,65.9H2.9c-9,0-16.3-7.4-16.3-16.6 c0-8.5,6.4-15.6,14.5-16.5c1.2-10.8,10.2-19,21-19c8.1,0,15.4,4.6,19,12c1.7-0.5,3.4-0.7,5.1-0.7c9.1,0,16.8,6.6,18.6,15.5 c1-0.2,2-0.4,3-0.4c7,0,12.6,5.8,12.6,12.8C80.4,60.2,74.7,65.9,67.8,65.9z"/><path fill="#FFFFFE" d="M99.9,69.9c-5.9,0-10.7,4.9-10.7,10.9c0,0.7,0.1,1.4,0.2,2l0.4,2l-2,0.3 c-5.2,0.8-9.2,5.4-9.2,10.8c0,6,4.8,10.9,10.7,10.9h62.8c4.5,0,8.1-3.7,8.1-8.3c0-3.6-2.2-6.7-5.5-7.9l-1.4-0.5l0.1-1.5 c0-0.2,0-0.5,0-0.7c0-6.3-5.1-11.5-11.3-11.5c-1.2,0-2.3,0.2-3.4,0.5l-2.5,0.8v-2.8c0-8.1-6.5-14.7-14.4-14.7c-6.2,0-11.7,4-13.6,10 l-0.8,2.3l-2.1-1.3C103.7,70.5,101.8,69.9,99.9,69.9z M152.1,110.8H89.3c-8,0-14.6-6.7-14.6-14.8c0-6.7,4.4-12.5,10.6-14.3 c0-0.3,0-0.6,0-0.8c0-8.2,6.5-14.8,14.6-14.8c1.9,0,3.8,0.4,5.5,1.1c3-6.4,9.4-10.6,16.5-10.6c9.3,0,17,7.1,18.1,16.3 c0.7-0.1,1.4-0.2,2.2-0.2c8.2,0,14.9,6.6,15.1,14.9c4.1,2,6.8,6.3,6.8,11C164.1,105.3,158.7,110.8,152.1,110.8z"/><path fill="#4DB4FA" d="M108.5,83.3H30.4c-4.1-0.4-7.6-3.2-10.4-8.2c-2.6-5.1-4.5-10.6-5.7-16.3l-1.9-8.3h16.9l1.7,1.3 c2.1,1.5,3.9,3.3,5.5,5.3c0.6,0.7,1.2,1.3,1.9,1.9h2.8l-6.4-17.8h22.8L74.7,59H89l0.7,0.2c8.6,0,11.9,4.2,13.7,8 c1,2.4,1.9,4.8,2.6,7.3L108.5,83.3z"/><path fill="#FFF" d="M102.2,78.5H30.8c-2.5-0.3-4.7-2.1-6.8-5.8c-2.4-4.7-4.1-9.8-5.1-15l-0.6-2.4h9.3l0.5,0.4 c1.7,1.2,3.2,2.7,4.6,4.4c1.1,1.4,2.4,2.7,3.8,3.9h11.4l-5.2-14.5c-0.5-1.3,0.2-2.7,1.5-3.2c0.3-0.1,0.6-0.1,0.8-0.1h7.2 c2,0,4,0.8,5.4,2.3l15,15.5h16c6.5,0,9.5,3.1,10.4,5.3c0.9,2.2,1.7,4.4,2.4,6.7L102.2,78.5z M97,74.6c-0.4-1.3-0.7-2.3-1.1-3.6 c-0.2-0.2-0.3-3.3-7.9-3.3H71L53.8,49.9H47l6.4,17.8h-18l-0.5-0.4c-1.8-1.4-3.5-3-5-4.8c-1-1.2-2.1-2.4-3.3-3.3h-3.2 c0.9,4,2.3,7.9,4.1,11.6c1.3,2.3,2.5,3.7,3.8,3.9H97V74.6z"/></symbol><symbol id="logo" viewBox="0 0 40 38"><g fill="none"><path fill="url(#svg_id_8a)" d="M21.5838288,34.2155951 C23.816092,37.7296854 27.3040032,37.7296854 28.2806183,37.7296854 L39.7209671,37.7296854 L26.1878716,21.9162791 C19.9096314,22.1865937 16.7007531,25.9709986 17.3983353,27.5928865 L21.5838288,34.2155951 Z"/><path fill="url(#svg_id_9b)" d="M17.5378518,27.5928865 C17.5378518,27.5928865 17.1193024,26.7819425 17.1193024,25.8358413 C17.1193024,22.1865937 20.4676972,20.1592339 24.2346413,19.34829 L26.327388,21.9162791 C20.0491478,22.0514364 16.8402695,25.9709986 17.5378518,27.5928865 Z"/><path fill="url(#svg_id_10c)" d="M22.6999604,15.8341997 C16.979786,15.8341997 12.7942925,16.780301 12.7942925,18.9428181 C12.7942925,19.753762 13.0733254,20.4295486 13.7709076,21.6459644 L17.5378518,27.7280438 C17.5378518,27.7280438 17.1193024,26.9170999 17.1193024,25.9709986 C17.1193024,22.321751 20.4676972,20.2943912 24.2346413,19.4834473 C25.3507729,19.2131327 26.4669045,19.2131327 27.5830361,19.2131327 C28.5596512,19.2131327 29.3967499,19.2131327 30.0943321,19.4834473 C29.5362663,17.8615595 28.5596512,15.8341997 22.6999604,15.8341997 Z"/><path fill="url(#svg_id_11d)" d="M7.77170036,12.0497948 C9.30638129,14.4826265 9.86444709,15.1584131 13.6313912,15.1584131 C16.4217202,15.1584131 20.7467301,15.1584131 20.7467301,15.1584131 L10.9805787,3.12941176 C8.7483155,0.561422709 7.63218391,0.0207934337 5.53943718,0.0207934337 L0.237812128,0.0207934337 L7.77170036,12.0497948 Z"/></g></symbol></svg>