<svg xmlns="http://www.w3.org/2000/svg" xmlns:xlink="http://www.w3.org/1999/xlink">
    <symbol id="input1" viewBox="0 0 178 65">
        <g fill="none" fill-rule="evenodd" transform="translate(1 -3)">
            <g transform="translate(0 27)">
                <rect width="176" height="40" fill="#FFF" stroke="#0078D2" stroke-linecap="square" stroke-width="2" rx="2"/>
                <rect width="17" height="26" x="11" y="7" fill="#078DF2"/>
                <text font-family="AmericanSans" font-size="18" letter-spacing=".36" transform="translate(12 9)">
                    <tspan x="0" y="18" fill="#FFF">15</tspan>
                    <tspan x="16.092" y="18" fill="#131313"> MAY 2018</tspan>
                </text>
            </g>
            <text fill="#131313" font-family="AmericanSansMedium, AmericanSans Medium" font-size="16" letter-spacing=".36">
                <tspan x="0" y="15">Label</tspan>
            </text>
        </g>
    </symbol>
    <symbol id="input3" viewBox="0 0 121 122">
        <ellipse cx="60.4" cy="61.1" fill="#4DB4FA" rx="60.1" ry="60.6"/>
        <path fill="#FFFFFE" d="M2.9,36.7c-6.9,0-12.5,5.7-12.5,12.7S-4,62,2.9,62h64.9c4.8,0,8.8-4,8.8-8.9s-3.9-8.9-8.8-8.9 c-1.3,0-2.6,0.3-3.8,0.9l-2.6,1.3l-0.2-2.9c-0.5-8.1-7.1-14.4-15-14.4c-1.9,0-3.7,0.4-5.5,1L39,30.7l-0.7-1.8 c-2.6-6.8-9-11.2-16.1-11.2c-9.4,0-17,7.5-17.3,17l-0.1,1.9H2.9V36.7z M67.8,65.9H2.9c-9,0-16.3-7.4-16.3-16.6 c0-8.5,6.4-15.6,14.5-16.5c1.2-10.8,10.2-19,21-19c8.1,0,15.4,4.6,19,12c1.7-0.5,3.4-0.7,5.1-0.7c9.1,0,16.8,6.6,18.6,15.5 c1-0.2,2-0.4,3-0.4c7,0,12.6,5.8,12.6,12.8C80.4,60.2,74.7,65.9,67.8,65.9z"/>
        <path fill="#FFFFFE" d="M99.9,69.9c-5.9,0-10.7,4.9-10.7,10.9c0,0.7,0.1,1.4,0.2,2l0.4,2l-2,0.3 c-5.2,0.8-9.2,5.4-9.2,10.8c0,6,4.8,10.9,10.7,10.9h62.8c4.5,0,8.1-3.7,8.1-8.3c0-3.6-2.2-6.7-5.5-7.9l-1.4-0.5l0.1-1.5 c0-0.2,0-0.5,0-0.7c0-6.3-5.1-11.5-11.3-11.5c-1.2,0-2.3,0.2-3.4,0.5l-2.5,0.8v-2.8c0-8.1-6.5-14.7-14.4-14.7c-6.2,0-11.7,4-13.6,10 l-0.8,2.3l-2.1-1.3C103.7,70.5,101.8,69.9,99.9,69.9z M152.1,110.8H89.3c-8,0-14.6-6.7-14.6-14.8c0-6.7,4.4-12.5,10.6-14.3 c0-0.3,0-0.6,0-0.8c0-8.2,6.5-14.8,14.6-14.8c1.9,0,3.8,0.4,5.5,1.1c3-6.4,9.4-10.6,16.5-10.6c9.3,0,17,7.1,18.1,16.3 c0.7-0.1,1.4-0.2,2.2-0.2c8.2,0,14.9,6.6,15.1,14.9c4.1,2,6.8,6.3,6.8,11C164.1,105.3,158.7,110.8,152.1,110.8z"/>
        <path fill="#4DB4FA" d="M108.5,83.3H30.4c-4.1-0.4-7.6-3.2-10.4-8.2c-2.6-5.1-4.5-10.6-5.7-16.3l-1.9-8.3h16.9l1.7,1.3 c2.1,1.5,3.9,3.3,5.5,5.3c0.6,0.7,1.2,1.3,1.9,1.9h2.8l-6.4-17.8h22.8L74.7,59H89l0.7,0.2c8.6,0,11.9,4.2,13.7,8 c1,2.4,1.9,4.8,2.6,7.3L108.5,83.3z"/>
        <path fill="#FFF" d="M102.2,78.5H30.8c-2.5-0.3-4.7-2.1-6.8-5.8c-2.4-4.7-4.1-9.8-5.1-15l-0.6-2.4h9.3l0.5,0.4 c1.7,1.2,3.2,2.7,4.6,4.4c1.1,1.4,2.4,2.7,3.8,3.9h11.4l-5.2-14.5c-0.5-1.3,0.2-2.7,1.5-3.2c0.3-0.1,0.6-0.1,0.8-0.1h7.2 c2,0,4,0.8,5.4,2.3l15,15.5h16c6.5,0,9.5,3.1,10.4,5.3c0.9,2.2,1.7,4.4,2.4,6.7L102.2,78.5z M97,74.6c-0.4-1.3-0.7-2.3-1.1-3.6 c-0.2-0.2-0.3-3.3-7.9-3.3H71L53.8,49.9H47l6.4,17.8h-18l-0.5-0.4c-1.8-1.4-3.5-3-5-4.8c-1-1.2-2.1-2.4-3.3-3.3h-3.2 c0.9,4,2.3,7.9,4.1,11.6c1.3,2.3,2.5,3.7,3.8,3.9H97V74.6z"/>
    </symbol>
</svg>